<?xml version="1.0" encoding="iso-8859-1"?>
<!-- Uploaded to: SVG Repo, www.svgrepo.com, Generator: SVG Repo Mixer Tools -->
<svg fill="#000000" height="800px" width="800px" version="1.1" id="Layer_1" xmlns="http://www.w3.org/2000/svg" xmlns:xlink="http://www.w3.org/1999/xlink" 
	 viewBox="0 0 511.999 511.999" xml:space="preserve">
<g>
	<g>
		<path d="M506.837,276.004c-19.287-30.953-52.575-49.432-89.045-49.432H123.817l-46.843-66.481
			c-3.032-4.303-7.966-6.862-13.23-6.862H31.892c-8.938,0-16.185,7.246-16.185,16.185v55.017c0,0.043,0.002,0.086,0.002,0.129
			C6.993,224.813,0,231.941,0,240.72c0,8.938,7.246,16.185,16.185,16.185h5.066c0.21,0,2.499,6.066,2.834,6.74
			c1.171,2.353,2.506,4.623,3.998,6.787c2.895,4.197,6.43,8.001,9.876,11.748c7.096,7.718,14.811,14.894,23.293,21.074
			c4.79,3.49,9.816,6.657,15.054,9.432c17.58,9.315,37.206,14.606,57.083,15.413c1.818,0.073,3.637,0.111,5.456,0.111h58.147
			c4.033,17.483,19.716,30.56,38.406,30.56h102.248c18.69,0,34.373-13.078,38.406-30.56h101.804
			c12.397,0,23.838-6.734,29.855-17.573C513.727,299.798,513.393,286.528,506.837,276.004z M337.645,326.401H235.397
			c-3.889,0-7.053-3.165-7.053-7.053c0-3.89,3.165-7.054,7.053-7.054h102.249c3.89,0.001,7.054,3.165,7.054,7.054
			C344.699,323.236,341.535,326.401,337.645,326.401z M479.41,294.926c-0.508,0.915-1.242,0.915-1.555,0.915H369.273
			c-7.192-9.652-18.692-15.916-31.628-15.916H235.397c-12.936,0-24.434,6.263-31.627,15.916h-64.925
			c-29.609,0-57.636-12.9-76.893-35.392l-5.331-6.227c4.378-2.897,7.27-7.859,7.27-13.502c0-8.812-7.047-15.964-15.81-16.165
			c0-0.041-0.003-0.083-0.003-0.124v-38.832h7.273l46.843,66.481c3.032,4.303,7.966,6.862,13.23,6.862h296.471
			c-0.122,0.802-0.205,1.616-0.205,2.453c0,8.938,7.246,16.185,16.185,16.185h34.527c1.221,0,2.406-0.147,3.55-0.402
			c5.128,4.568,9.657,9.915,13.415,15.947C479.529,293.389,479.918,294.011,479.41,294.926z"/>
	</g>
</g>
</svg>